<svg width="20" height="20" viewBox="0 0 20 20" fill="none" xmlns="http://www.w3.org/2000/svg">
<g clip-path="url(#clip0_13_858)">
<path d="M19.9814 5.88005C19.9346 4.81738 19.7627 4.0868 19.5165 3.45374C19.2626 2.78176 18.8719 2.18014 18.36 1.68002C17.8599 1.1721 17.2543 0.777435 16.5901 0.527447C15.9534 0.281274 15.2266 0.109427 14.1639 0.0625732C13.0933 0.0117516 12.7534 0 10.0381 0C7.3227 0 6.98282 0.0117516 5.91618 0.0586052C4.8535 0.105459 4.12292 0.277459 3.49002 0.523479C2.81789 0.777435 2.21627 1.16814 1.71615 1.68002C1.20824 2.18014 0.813719 2.78573 0.563579 3.44992C0.317407 4.0868 0.14556 4.81341 0.098706 5.87609C0.0478843 6.9467 0.0361328 7.28658 0.0361328 10.002C0.0361328 12.7173 0.0478843 13.0572 0.0947379 14.1239C0.141591 15.1865 0.313591 15.9171 0.559763 16.5502C0.813719 17.2221 1.20824 17.8238 1.71615 18.3239C2.21627 18.8318 2.82186 19.2265 3.48605 19.4765C4.12292 19.7226 4.84954 19.8945 5.91236 19.9413C6.97885 19.9883 7.31889 19.9999 10.0343 19.9999C12.7496 19.9999 13.0895 19.9883 14.1561 19.9413C15.2188 19.8945 15.9494 19.7226 16.5823 19.4765C17.9264 18.9568 18.9891 17.8941 19.5087 16.5502C19.7548 15.9133 19.9268 15.1865 19.9736 14.1239C20.0205 13.0572 20.0322 12.7173 20.0322 10.002C20.0322 7.28658 20.0283 6.9467 19.9814 5.88005ZM18.1804 14.0457C18.1373 15.0225 17.9733 15.5499 17.8365 15.9015C17.5005 16.7728 16.8089 17.4643 15.9377 17.8004C15.586 17.9372 15.0548 18.1012 14.0818 18.1441C13.0269 18.1911 12.7106 18.2027 10.042 18.2027C7.37352 18.2027 7.05318 18.1911 6.0021 18.1441C5.02535 18.1012 4.4979 17.9372 4.14627 17.8004C3.71269 17.6402 3.31802 17.3862 2.99767 17.0541C2.66558 16.7298 2.41162 16.3391 2.25138 15.9055C2.11463 15.5539 1.95057 15.0225 1.90768 14.0497C1.86067 12.9948 1.84908 12.6783 1.84908 10.0097C1.84908 7.34122 1.86067 7.02087 1.90768 5.96995C1.95057 4.99319 2.11463 4.46575 2.25138 4.11412C2.41162 3.68038 2.66558 3.28586 3.00164 2.96536C3.3258 2.63327 3.7165 2.37931 4.15024 2.21921C4.50187 2.08247 5.03329 1.9184 6.00607 1.87537C7.06096 1.82851 7.37749 1.81676 10.0459 1.81676C12.7183 1.81676 13.0347 1.82851 14.0858 1.87537C15.0625 1.9184 15.59 2.08247 15.9416 2.21921C16.3752 2.37931 16.7699 2.63327 17.0902 2.96536C17.4223 3.28967 17.6763 3.68038 17.8365 4.11412C17.9733 4.46575 18.1373 4.99701 18.1804 5.96995C18.2272 7.02484 18.239 7.34122 18.239 10.0097C18.239 12.6783 18.2272 12.9908 18.1804 14.0457Z" fill="#B781DF"/>
<path d="M10.0381 4.86414C7.20171 4.86414 4.90039 7.16531 4.90039 10.0019C4.90039 12.8384 7.20171 15.1396 10.0381 15.1396C12.8747 15.1396 15.1758 12.8384 15.1758 10.0019C15.1758 7.16531 12.8747 4.86414 10.0381 4.86414ZM10.0381 13.3346C8.198 13.3346 6.7054 11.8421 6.7054 10.0019C6.7054 8.16159 8.198 6.66915 10.0381 6.66915C11.8784 6.66915 13.3708 8.16159 13.3708 10.0019C13.3708 11.8421 11.8784 13.3346 10.0381 13.3346Z" fill="#B781DF"/>
<path d="M16.5787 4.6611C16.5787 5.32346 16.0416 5.86052 15.3791 5.86052C14.7168 5.86052 14.1797 5.32346 14.1797 4.6611C14.1797 3.99858 14.7168 3.46167 15.3791 3.46167C16.0416 3.46167 16.5787 3.99858 16.5787 4.6611Z" fill="#B781DF"/>
</g>
<defs>
<clipPath id="clip0_13_858">
<rect width="20" height="20" fill="white" transform="translate(0.000976562)"/>
</clipPath>
</defs>
</svg>
