<svg width="20" height="20" viewBox="0 0 20 20" fill="none" xmlns="http://www.w3.org/2000/svg">
<g clip-path="url(#clip0_13_862)">
<path d="M20.001 3.79875C19.2572 4.125 18.4647 4.34125 17.6385 4.44625C18.4885 3.93875 19.1372 3.14125 19.4422 2.18C18.6497 2.6525 17.7747 2.98625 16.8422 3.1725C16.0897 2.37125 15.0172 1.875 13.8472 1.875C11.5772 1.875 9.74973 3.7175 9.74973 5.97625C9.74973 6.30125 9.77723 6.61375 9.84473 6.91125C6.43598 6.745 3.41973 5.11125 1.39348 2.6225C1.03973 3.23625 0.832227 3.93875 0.832227 4.695C0.832227 6.115 1.56348 7.37375 2.65348 8.1025C1.99473 8.09 1.34848 7.89875 0.800977 7.5975C0.800977 7.61 0.800977 7.62625 0.800977 7.6425C0.800977 9.635 2.22223 11.29 4.08598 11.6712C3.75223 11.7625 3.38848 11.8062 3.01098 11.8062C2.74848 11.8062 2.48348 11.7913 2.23473 11.7362C2.76598 13.36 4.27348 14.5538 6.06598 14.5925C4.67098 15.6838 2.89973 16.3412 0.982227 16.3412C0.645977 16.3412 0.323477 16.3263 0.000976562 16.285C1.81723 17.4563 3.96973 18.125 6.29098 18.125C13.836 18.125 17.961 11.875 17.961 6.4575C17.961 6.27625 17.9547 6.10125 17.946 5.9275C18.7597 5.35 19.4435 4.62875 20.001 3.79875Z" fill="#B781DF"/>
</g>
<defs>
<clipPath id="clip0_13_862">
<rect width="20" height="20" fill="white" transform="translate(0.000976562)"/>
</clipPath>
</defs>
</svg>
