<svg width="20" height="20" viewBox="0 0 20 20" fill="none" xmlns="http://www.w3.org/2000/svg">
<g clip-path="url(#clip0_13_855)">
<path d="M19.5889 5.19872C19.3583 4.34194 18.6828 3.66659 17.8262 3.43588C16.2611 3.00757 10.0008 3.00757 10.0008 3.00757C10.0008 3.00757 3.74058 3.00757 2.1755 3.41955C1.33535 3.65011 0.643369 4.3421 0.41281 5.19872C0.000976562 6.76366 0.000976562 10.0092 0.000976562 10.0092C0.000976562 10.0092 0.000976562 13.271 0.41281 14.8197C0.643521 15.6763 1.31887 16.3518 2.17565 16.5825C3.75706 17.0108 10.0009 17.0108 10.0009 17.0108C10.0009 17.0108 16.2611 17.0108 17.8262 16.5988C18.683 16.3683 19.3583 15.6928 19.5891 14.8361C20.0009 13.271 20.0009 10.0257 20.0009 10.0257C20.0009 10.0257 20.0174 6.76366 19.5889 5.19872Z" fill="#B781DF"/>
<path d="M8.00732 13.0077L13.2132 10.0093L8.00732 7.01099V13.0077Z" fill="white"/>
</g>
<defs>
<clipPath id="clip0_13_855">
<rect width="20" height="20" fill="white" transform="translate(0.000976562)"/>
</clipPath>
</defs>
</svg>
